<svg xmlns="http://www.w3.org/2000/svg" xmlns:xlink="http://www.w3.org/1999/xlink" width="1920" zoomAndPan="magnify" viewBox="0 0 1440 809.999993" height="1080" preserveAspectRatio="xMidYMid meet" version="1.2"><defs><clipPath id="9919165151"><path d="M 0.410156 125 L 122 125 L 122 182 L 0.410156 182 Z M 0.410156 125 "/></clipPath><clipPath id="563c6039c4"><path d="M 0.410156 197 L 122 197 L 122 254 L 0.410156 254 Z M 0.410156 197 "/></clipPath><clipPath id="cfbddda40a"><path d="M 380 22 L 1243.71875 22 L 1243.71875 345 L 380 345 Z M 380 22 "/></clipPath><clipPath id="0d8b604a26"><rect x="0" width="864" y="0" height="323"/></clipPath><clipPath id="18890ac83d"><rect x="0" width="1244" y="0" height="370"/></clipPath></defs><g id="4b11999ee7"><g transform="matrix(1,0,0,1,95,219)"><g clip-path="url(#18890ac83d)"><path style=" stroke:none;fill-rule:nonzero;fill:#5044e5;fill-opacity:1;" d="M 74.300781 69.515625 L 136.210938 122.414062 C 139.886719 125.554688 142.003906 130.164062 142.003906 135.019531 L 142.003906 174.882812 L 80.09375 121.988281 C 76.417969 118.847656 74.300781 114.238281 74.300781 109.382812 Z M 74.300781 69.515625 "/><path style=" stroke:none;fill-rule:nonzero;fill:#5044e5;fill-opacity:1;" d="M 74.300781 309.171875 L 136.210938 256.273438 C 139.886719 253.132812 142.003906 248.527344 142.003906 243.671875 L 142.003906 203.804688 L 80.09375 256.703125 C 76.417969 259.84375 74.300781 264.453125 74.300781 269.304688 Z M 74.300781 309.171875 "/><g clip-rule="nonzero" clip-path="url(#9919165151)"><path style=" stroke:none;fill-rule:nonzero;fill:#5044e5;fill-opacity:1;" d="M 0.417969 125.292969 L 61.484375 177.179688 C 64.445312 179.695312 68.195312 181.078125 72.070312 181.078125 L 121.320312 181.078125 L 60.402344 129.199219 C 57.4375 126.679688 53.683594 125.292969 49.804688 125.292969 Z M 0.417969 125.292969 "/></g><g clip-rule="nonzero" clip-path="url(#563c6039c4)"><path style=" stroke:none;fill-rule:nonzero;fill:#5044e5;fill-opacity:1;" d="M 0.417969 253.386719 L 61.109375 201.527344 C 64.078125 198.996094 67.839844 197.601562 71.730469 197.601562 L 121.464844 197.601562 L 60.398438 249.492188 C 57.4375 252.007812 53.6875 253.386719 49.8125 253.386719 Z M 0.417969 253.386719 "/></g><path style=" stroke:none;fill-rule:nonzero;fill:#5044e5;fill-opacity:1;" d="M 226.117188 69.515625 L 164.203125 122.414062 C 160.53125 125.554688 158.410156 130.164062 158.410156 135.019531 L 158.410156 174.882812 L 220.320312 121.988281 C 223.996094 118.847656 226.117188 114.238281 226.117188 109.382812 Z M 226.117188 69.515625 "/><path style=" stroke:none;fill-rule:nonzero;fill:#5044e5;fill-opacity:1;" d="M 226.117188 309.171875 L 164.203125 256.273438 C 160.53125 253.132812 158.410156 248.527344 158.410156 243.671875 L 158.410156 203.804688 L 220.320312 256.703125 C 223.996094 259.84375 226.117188 264.453125 226.117188 269.304688 Z M 226.117188 309.171875 "/><path style=" stroke:none;fill-rule:nonzero;fill:#5044e5;fill-opacity:1;" d="M 299.972656 125.292969 L 238.90625 177.179688 C 235.945312 179.695312 232.195312 181.078125 228.320312 181.078125 L 179.070312 181.078125 L 239.988281 129.199219 C 242.953125 126.679688 246.707031 125.292969 250.589844 125.292969 Z M 299.972656 125.292969 "/><path style=" stroke:none;fill-rule:nonzero;fill:#5044e5;fill-opacity:1;" d="M 299.953125 253.386719 L 239.257812 201.527344 C 236.292969 198.996094 232.53125 197.601562 228.640625 197.601562 L 178.90625 197.601562 L 239.972656 249.492188 C 242.933594 252.007812 246.683594 253.386719 250.554688 253.386719 Z M 299.953125 253.386719 "/><g clip-rule="nonzero" clip-path="url(#cfbddda40a)"><g transform="matrix(1,0,0,1,380,22)"><g id="c3a5171940" clip-path="url(#0d8b604a26)"><g style="fill:#5044e5;fill-opacity:1;"><g transform="translate(1.246134, 250.723629)"><path style="stroke:none" d="M 22.046875 0 L 22.046875 -169.671875 L 94.46875 -169.671875 C 104.90625 -169.671875 113.738281 -168.023438 120.96875 -164.734375 C 128.207031 -161.441406 133.679688 -156.757812 137.390625 -150.6875 C 141.109375 -144.613281 142.96875 -137.441406 142.96875 -129.171875 C 142.96875 -121.660156 141.148438 -115.039062 137.515625 -109.3125 C 133.878906 -103.59375 128.660156 -98.992188 121.859375 -95.515625 L 121.859375 -93.078125 C 132.535156 -90.285156 140.773438 -85.210938 146.578125 -77.859375 C 152.378906 -70.515625 155.28125 -61.503906 155.28125 -50.828125 C 155.28125 -34.578125 150.382812 -22.039062 140.59375 -13.21875 C 130.8125 -4.40625 116.285156 0 97.015625 0 Z M 87.5 -102.015625 C 103.125 -102.015625 110.9375 -109.050781 110.9375 -123.125 C 110.9375 -130.320312 109.003906 -135.679688 105.140625 -139.203125 C 101.273438 -142.722656 95.394531 -144.484375 87.5 -144.484375 L 55.59375 -144.484375 L 55.59375 -102.015625 Z M 93.65625 -26.578125 C 112.144531 -26.578125 121.390625 -34.972656 121.390625 -51.765625 C 121.390625 -68.628906 112.144531 -77.0625 93.65625 -77.0625 L 55.59375 -77.0625 L 55.59375 -26.578125 Z M 93.65625 -26.578125 "/></g></g><g style="fill:#5044e5;fill-opacity:1;"><g transform="translate(167.190256, 250.723629)"><path style="stroke:none" d="M 53.15625 2.4375 C 41.625 2.4375 32.820312 -0.675781 26.75 -6.90625 C 20.675781 -13.132812 17.640625 -22.59375 17.640625 -35.28125 L 17.640625 -179.421875 L 49.78125 -179.421875 L 49.78125 -36.5625 C 49.78125 -28.738281 53.03125 -24.828125 59.53125 -24.828125 C 61.382812 -24.828125 63.359375 -25.140625 65.453125 -25.765625 L 67.078125 -25.296875 L 69.984375 -0.578125 C 68.203125 0.347656 65.835938 1.082031 62.890625 1.625 C 59.953125 2.164062 56.707031 2.4375 53.15625 2.4375 Z M 53.15625 2.4375 "/></g></g><g style="fill:#5044e5;fill-opacity:1;"><g transform="translate(240.762684, 250.723629)"><path style="stroke:none" d="M 34.46875 -143.328125 C 28.664062 -143.328125 23.945312 -145.085938 20.3125 -148.609375 C 16.675781 -152.128906 14.859375 -156.671875 14.859375 -162.234375 C 14.859375 -167.734375 16.675781 -172.242188 20.3125 -175.765625 C 23.945312 -179.285156 28.664062 -181.046875 34.46875 -181.046875 C 38.332031 -181.046875 41.773438 -180.234375 44.796875 -178.609375 C 47.816406 -176.984375 50.15625 -174.753906 51.8125 -171.921875 C 53.476562 -169.097656 54.3125 -165.867188 54.3125 -162.234375 C 54.3125 -158.597656 53.476562 -155.347656 51.8125 -152.484375 C 50.15625 -149.628906 47.816406 -147.390625 44.796875 -145.765625 C 41.773438 -144.140625 38.332031 -143.328125 34.46875 -143.328125 Z M 18.453125 0 L 18.453125 -128 L 50.59375 -128 L 50.59375 0 Z M 18.453125 0 "/></g></g><g style="fill:#5044e5;fill-opacity:1;"><g transform="translate(309.693318, 250.723629)"><path style="stroke:none" d="M 18.453125 0 L 18.453125 -128 L 49.328125 -128 L 49.328125 -109.203125 L 51.765625 -108.625 C 59.734375 -123.164062 72.648438 -130.4375 90.515625 -130.4375 C 105.296875 -130.4375 116.144531 -126.410156 123.0625 -118.359375 C 129.988281 -110.316406 133.453125 -98.597656 133.453125 -83.203125 L 133.453125 0 L 101.3125 0 L 101.3125 -79.265625 C 101.3125 -87.773438 99.609375 -93.90625 96.203125 -97.65625 C 92.796875 -101.40625 87.34375 -103.28125 79.84375 -103.28125 C 70.632812 -103.28125 63.457031 -100.300781 58.3125 -94.34375 C 53.164062 -88.382812 50.59375 -79.023438 50.59375 -66.265625 L 50.59375 0 Z M 18.453125 0 "/></g></g><g style="fill:#5044e5;fill-opacity:1;"><g transform="translate(459.623251, 250.723629)"><path style="stroke:none" d="M 18.453125 0 L 18.453125 -179.421875 L 50.59375 -179.421875 L 50.59375 -79.84375 L 53.734375 -79.84375 L 90.75 -128 L 123.359375 -128 L 123.359375 -125.328125 L 79.84375 -69.171875 L 128.234375 -2.90625 L 128.234375 0 L 94.34375 0 L 53.734375 -53.96875 L 50.59375 -53.96875 L 50.59375 0 Z M 18.453125 0 "/></g></g><g style="fill:#5044e5;fill-opacity:1;"><g transform="translate(593.887394, 250.723629)"><path style="stroke:none" d="M 32.71875 1.046875 C 28.625 1.046875 25.007812 0.210938 21.875 -1.453125 C 18.738281 -3.117188 16.335938 -5.421875 14.671875 -8.359375 C 13.015625 -11.296875 12.1875 -14.625 12.1875 -18.34375 C 12.1875 -22.050781 13.015625 -25.375 14.671875 -28.3125 C 16.335938 -31.25 18.738281 -33.566406 21.875 -35.265625 C 25.007812 -36.972656 28.625 -37.828125 32.71875 -37.828125 C 36.90625 -37.828125 40.5625 -36.992188 43.6875 -35.328125 C 46.820312 -33.671875 49.222656 -31.367188 50.890625 -28.421875 C 52.554688 -25.484375 53.390625 -22.160156 53.390625 -18.453125 C 53.390625 -12.804688 51.507812 -8.144531 47.75 -4.46875 C 44 -0.789062 38.988281 1.046875 32.71875 1.046875 Z M 32.71875 1.046875 "/></g></g><g style="fill:#5044e5;fill-opacity:1;"><g transform="translate(659.452729, 250.723629)"><path style="stroke:none" d="M 49.90625 2.4375 C 41.695312 2.4375 34.578125 0.929688 28.546875 -2.078125 C 22.515625 -5.097656 17.875 -9.53125 14.625 -15.375 C 11.375 -21.21875 9.75 -28.238281 9.75 -36.4375 C 9.75 -44.019531 11.375 -50.382812 14.625 -55.53125 C 17.875 -60.675781 22.898438 -64.890625 29.703125 -68.171875 C 36.515625 -71.460938 45.414062 -74 56.40625 -75.78125 C 64.0625 -77.019531 69.878906 -78.375 73.859375 -79.84375 C 77.847656 -81.3125 80.535156 -82.972656 81.921875 -84.828125 C 83.316406 -86.691406 84.015625 -89.050781 84.015625 -91.90625 C 84.015625 -96.007812 82.582031 -99.144531 79.71875 -101.3125 C 76.863281 -103.476562 72.109375 -104.5625 65.453125 -104.5625 C 58.335938 -104.5625 51.566406 -102.972656 45.140625 -99.796875 C 38.722656 -96.628906 33.15625 -92.453125 28.4375 -87.265625 L 26.109375 -87.265625 L 12.65625 -107.578125 C 19.144531 -114.773438 27.070312 -120.382812 36.4375 -124.40625 C 45.800781 -128.425781 56.015625 -130.4375 67.078125 -130.4375 C 84.023438 -130.4375 96.285156 -126.835938 103.859375 -119.640625 C 111.441406 -112.453125 115.234375 -102.242188 115.234375 -89.015625 L 115.234375 -33.421875 C 115.234375 -27.691406 117.75 -24.828125 122.78125 -24.828125 C 124.71875 -24.828125 126.613281 -25.175781 128.46875 -25.875 L 130.09375 -25.421875 L 132.40625 -3.015625 C 130.632812 -1.859375 128.160156 -0.910156 124.984375 -0.171875 C 121.816406 0.554688 118.335938 0.921875 114.546875 0.921875 C 106.878906 0.921875 100.898438 -0.546875 96.609375 -3.484375 C 92.316406 -6.421875 89.242188 -11.023438 87.390625 -17.296875 L 84.953125 -17.53125 C 78.679688 -4.21875 67 2.4375 49.90625 2.4375 Z M 60.109375 -21.578125 C 67.535156 -21.578125 73.472656 -24.070312 77.921875 -29.0625 C 82.367188 -34.0625 84.59375 -41.007812 84.59375 -49.90625 L 84.59375 -62.90625 L 82.390625 -63.359375 C 80.460938 -61.816406 77.929688 -60.519531 74.796875 -59.46875 C 71.660156 -58.425781 67.15625 -57.40625 61.28125 -56.40625 C 54.3125 -55.238281 49.296875 -53.242188 46.234375 -50.421875 C 43.179688 -47.597656 41.65625 -43.59375 41.65625 -38.40625 C 41.65625 -32.914062 43.28125 -28.738281 46.53125 -25.875 C 49.78125 -23.007812 54.304688 -21.578125 60.109375 -21.578125 Z M 60.109375 -21.578125 "/></g></g><g style="fill:#5044e5;fill-opacity:1;"><g transform="translate(794.412835, 250.723629)"><path style="stroke:none" d="M 34.46875 -143.328125 C 28.664062 -143.328125 23.945312 -145.085938 20.3125 -148.609375 C 16.675781 -152.128906 14.859375 -156.671875 14.859375 -162.234375 C 14.859375 -167.734375 16.675781 -172.242188 20.3125 -175.765625 C 23.945312 -179.285156 28.664062 -181.046875 34.46875 -181.046875 C 38.332031 -181.046875 41.773438 -180.234375 44.796875 -178.609375 C 47.816406 -176.984375 50.15625 -174.753906 51.8125 -171.921875 C 53.476562 -169.097656 54.3125 -165.867188 54.3125 -162.234375 C 54.3125 -158.597656 53.476562 -155.347656 51.8125 -152.484375 C 50.15625 -149.628906 47.816406 -147.390625 44.796875 -145.765625 C 41.773438 -144.140625 38.332031 -143.328125 34.46875 -143.328125 Z M 18.453125 0 L 18.453125 -128 L 50.59375 -128 L 50.59375 0 Z M 18.453125 0 "/></g></g></g></g></g></g></g></g></svg>